<svg xmlns="http://www.w3.org/2000/svg" height="569" width="436" style=""><rect id="backgroundrect" width="100%" height="100%" x="0" y="0" fill="none" stroke="none"/><g class="currentLayer" style=""><title>Layer 1</title><path d="m1.3877787807814457e-17,66.382812 v493.132813 c0,5.238281 4.246094,9.484375 9.484375,9.484375 h360.367188 c5.234374,0 9.480468,-4.246094 9.480468,-9.484375 v-398.296875 c0,-0.21093800000000013 -0.10156200000000004,-0.39062500000000017 -0.12109400000000005,-0.5976560000000003 c-0.046874000000000034,-0.832032 -0.21093700000000012,-1.6523440000000007 -0.4843740000000003,-2.4375 c-0.10546900000000002,-0.3046880000000002 -0.17968800000000001,-0.5976560000000003 -0.31250000000000017,-0.894532 c-0.460938,-1.03125 -1.101563,-1.972656 -1.898438,-2.777343 l-94.832031,-94.832031 c-0.8046880000000003,-0.800782 -1.75,-1.441407 -2.789063,-1.898438 c-0.285156,-0.12109400000000005 -0.574218,-0.22265600000000008 -0.8710940000000005,-0.31250000000000017 c-0.792968,-0.273438 -1.617187,-0.43750000000000017 -2.4570309999999997,-0.4921880000000002 c-0.16015600000000008,0.02734400000000002 -0.3476560000000003,-0.074218 -0.5468750000000003,-0.074218 h-265.535156 c-5.238281,0 -9.484375,4.242187 -9.484375,9.480468 zm346.957031,85.351563 h-62.457031 v-62.457031 zm-327.992187,-75.867187 h246.570312 v85.351562 c0,5.234375 4.246094,9.480469 9.480469,9.480469 h85.351562 v379.335937 h-341.402343 zm0,0 " id="svg_1" class="" fill-opacity="1" fill="#a2acbf"/><path d="m398.300781,493.132812 v18.964844 h28.449219 c5.238281,0 9.484375,-4.242187 9.484375,-9.480468 v-493.132813 c0,-5.238281 -4.246094,-9.484375 -9.484375,-9.484375 h-360.367187 c-5.238282,0 -9.484376,4.246094 -9.484376,9.484375 v28.449219 h18.96875 v-18.96875 h341.398438 v474.167968 zm0,0 " id="svg_2" class="" fill-opacity="1" fill="#a2acbf"/><path d="m75.867187,189.667969 h227.597657 v18.964843000000002 h-227.597657 zm0,0 " id="svg_3" class="" fill-opacity="1" fill="#a2acbf"/><path d="m75.867187,132.765625 h75.867188 v18.96875 h-75.867188 zm0,0 " id="svg_4" class="" fill-opacity="1" fill="#a2acbf"/><path d="m75.867187,246.566406 h151.734376 v18.96875 h-151.734376 zm0,0 " id="svg_5" class="" fill-opacity="1" fill="#a2acbf"/><path d="m246.566406,246.566406 h56.898438 v18.96875 h-56.898438 zm0,0 " id="svg_6" class="" fill-opacity="1" fill="#a2acbf"/><path d="m75.867187,303.464844 h227.597657 v18.96875 h-227.597657 zm0,0 " id="svg_7" class="" fill-opacity="1" fill="#a2acbf"/><path d="m75.867187,417.265625 h227.597657 v18.96875 h-227.597657 zm0,0 " id="svg_8" class="" fill-opacity="1" fill="#a2acbf"/><path d="m161.214844,360.367188 h142.25 v18.964843000000002 h-142.25 zm0,0 " id="svg_9" class="" fill-opacity="1" fill="#a2acbf"/><path d="m75.867187,360.367188 h66.382813 v18.964843000000002 h-66.382813 zm0,0 " id="svg_10" class="" fill-opacity="1" fill="#a2acbf"/><path d="m75.867187,474.167969 h37.933594 v18.964843000000002 h-37.933594 zm0,0 " id="svg_11" class="" fill-opacity="1" fill="#a2acbf"/><path d="m132.765625,474.167969 h170.699219 v18.964843000000002 h-170.699219 zm0,0 " id="svg_12" class="" fill-opacity="1" fill="#a2acbf"/></g></svg>