<svg xmlns="http://www.w3.org/2000/svg" xmlns:xlink="http://www.w3.org/1999/xlink" version="1.1" style="" xml:space="preserve" width="480" height="480"><rect id="backgroundrect" width="100%" height="100%" x="0" y="0" fill="none" stroke="none"/>
























<g class="currentLayer" style=""><title>Layer 1</title><g id="svg_1" class="" fill="#ffffff" fill-opacity="1">
	<g id="svg_2" fill="#ffffff" fill-opacity="1">
		<path d="M415.928,88c0.019-2.111-0.798-4.144-2.272-5.656l-80-80c-1.505-1.484-3.543-2.302-5.656-2.272V0H88    C74.745,0,64,10.745,64,24v432c0,13.255,10.745,24,24,24h304c13.255,0,24-10.745,24-24V88H415.928z M336,27.312L388.688,80H344    c-4.418,0-8-3.582-8-8V27.312z M400,456c0,4.418-3.582,8-8,8H88c-4.418,0-8-3.582-8-8V24c0-4.418,3.582-8,8-8h232v56    c0,13.255,10.745,24,24,24h56V456z" id="svg_3" fill="#ffffff" fill-opacity="1"/>
	</g>
</g><g id="svg_4" class="" fill="#ffffff" fill-opacity="1">
	<g id="svg_5" fill="#ffffff" fill-opacity="1">
		<path d="M144,216c-13.255,0-24,10.745-24,24s10.745,24,24,24s24-10.745,24-24S157.255,216,144,216z M144,248c-4.418,0-8-3.582-8-8    s3.582-8,8-8s8,3.582,8,8S148.418,248,144,248z" id="svg_6" fill="#ffffff" fill-opacity="1"/>
	</g>
</g><g id="svg_7" class="" fill="#ffffff" fill-opacity="1">
	<g id="svg_8" fill="#ffffff" fill-opacity="1">
		<rect x="200" y="232" width="160" height="16" id="svg_9" fill="#ffffff" fill-opacity="1"/>
	</g>
</g><g id="svg_10" class="" fill="#ffffff" fill-opacity="1">
	<g id="svg_11" fill="#ffffff" fill-opacity="1">
		<path d="M144,136c-13.255,0-24,10.745-24,24s10.745,24,24,24s24-10.745,24-24S157.255,136,144,136z M144,168c-4.418,0-8-3.582-8-8    s3.582-8,8-8s8,3.582,8,8S148.418,168,144,168z" id="svg_12" fill="#ffffff" fill-opacity="1"/>
	</g>
</g><g id="svg_13" class="" fill="#ffffff" fill-opacity="1">
	<g id="svg_14" fill="#ffffff" fill-opacity="1">
		<rect x="200" y="152" width="160" height="16" id="svg_15" fill="#ffffff" fill-opacity="1"/>
	</g>
</g><g id="svg_16" class="" fill="#ffffff" fill-opacity="1">
	<g id="svg_17" fill="#ffffff" fill-opacity="1">
		<path d="M144,296c-13.255,0-24,10.745-24,24s10.745,24,24,24s24-10.745,24-24S157.255,296,144,296z M144,328c-4.418,0-8-3.582-8-8    s3.582-8,8-8s8,3.582,8,8S148.418,328,144,328z" id="svg_18" fill="#ffffff" fill-opacity="1"/>
	</g>
</g><g id="svg_19" class="" fill="#ffffff" fill-opacity="1">
	<g id="svg_20" fill="#ffffff" fill-opacity="1">
		<rect x="200" y="312" width="160" height="16" id="svg_21" fill="#ffffff" fill-opacity="1"/>
	</g>
</g><g id="svg_22" class="" fill="#ffffff" fill-opacity="1">
	<g id="svg_23" fill="#ffffff" fill-opacity="1">
		<path d="M144,376c-13.255,0-24,10.745-24,24s10.745,24,24,24s24-10.745,24-24S157.255,376,144,376z M144,408c-4.418,0-8-3.582-8-8    s3.582-8,8-8s8,3.582,8,8S148.418,408,144,408z" id="svg_24" fill="#ffffff" fill-opacity="1"/>
	</g>
</g><g id="svg_25" class="" fill="#ffffff" fill-opacity="1">
	<g id="svg_26" fill="#ffffff" fill-opacity="1">
		<rect x="200" y="392" width="160" height="16" id="svg_27" fill="#ffffff" fill-opacity="1"/>
	</g>
</g><g id="svg_28">
</g><g id="svg_29">
</g><g id="svg_30">
</g><g id="svg_31">
</g><g id="svg_32">
</g><g id="svg_33">
</g><g id="svg_34">
</g><g id="svg_35">
</g><g id="svg_36">
</g><g id="svg_37">
</g><g id="svg_38">
</g><g id="svg_39">
</g><g id="svg_40">
</g><g id="svg_41">
</g><g id="svg_42">
</g></g></svg>